<?xml version="1.0" encoding="UTF-8"?>
<!DOCTYPE svg PUBLIC "-//W3C//DTD SVG 1.1//EN" "http://www.w3.org/Graphics/SVG/1.1/DTD/svg11.dtd">
<svg xmlns="http://www.w3.org/2000/svg" version="1.1" width="47px" height="22px" style="shape-rendering:geometricPrecision; text-rendering:geometricPrecision; image-rendering:optimizeQuality; fill-rule:evenodd; clip-rule:evenodd" xmlns:xlink="http://www.w3.org/1999/xlink">
<g><path style="opacity:0.766" fill="#fe8500" d="M 1.5,-0.5 C 3.16667,-0.5 4.83333,-0.5 6.5,-0.5C 6.17575,3.55461 6.50909,7.55461 7.5,11.5C 12.5058,7.82234 17.1725,3.82234 21.5,-0.5C 24.1667,-0.5 26.8333,-0.5 29.5,-0.5C 21.1267,7.20879 12.4601,14.5421 3.5,21.5C 2.83333,21.5 2.16667,21.5 1.5,21.5C 1.5,14.1667 1.5,6.83333 1.5,-0.5 Z"/></g>
<g><path style="opacity:0.712" fill="#ff8500" d="M 39.5,-0.5 C 40.5,-0.5 41.5,-0.5 42.5,-0.5C 42.5,6.83333 42.5,14.1667 42.5,21.5C 40.5,21.5 38.5,21.5 36.5,21.5C 36.6655,17.4862 36.4988,13.4862 36,9.5C 31.0039,13.3993 26.1706,17.3993 21.5,21.5C 18.8333,21.5 16.1667,21.5 13.5,21.5C 22.4601,14.5421 31.1267,7.20879 39.5,-0.5 Z"/></g>
</svg>
